<mxfile host="app.diagrams.net" modified="2023-08-27T09:36:08.459Z" agent="Mozilla/5.0 (Windows NT 10.0; Win64; x64) AppleWebKit/537.36 (KHTML, like Gecko) Chrome/116.0.0.0 Safari/537.36" etag="9gHisp_lDtJzuHpaFkQi" version="21.6.8" type="device">
  <diagram name="PÃ¡gina-1" id="8KNJ5wDsjGg0hBhWs7O-">
    <mxGraphModel dx="1313" dy="668" grid="1" gridSize="10" guides="1" tooltips="1" connect="1" arrows="1" fold="1" page="1" pageScale="1" pageWidth="827" pageHeight="1169" math="0" shadow="0">
      <root>
        <mxCell id="0" />
        <mxCell id="1" parent="0" />
        <mxCell id="i_eJskDw9b9MyVwQ0v4X-13" value="" style="edgeStyle=orthogonalEdgeStyle;rounded=0;orthogonalLoop=1;jettySize=auto;html=1;startArrow=ERone;startFill=0;endArrow=none;endFill=0;" edge="1" parent="1" source="i_eJskDw9b9MyVwQ0v4X-10" target="i_eJskDw9b9MyVwQ0v4X-12">
          <mxGeometry relative="1" as="geometry" />
        </mxCell>
        <mxCell id="i_eJskDw9b9MyVwQ0v4X-10" value="region" style="whiteSpace=wrap;html=1;" vertex="1" parent="1">
          <mxGeometry x="80" y="470" width="120" height="60" as="geometry" />
        </mxCell>
        <mxCell id="i_eJskDw9b9MyVwQ0v4X-15" value="" style="edgeStyle=orthogonalEdgeStyle;rounded=0;orthogonalLoop=1;jettySize=auto;html=1;endArrow=ERmany;endFill=0;" edge="1" parent="1" source="i_eJskDw9b9MyVwQ0v4X-12" target="i_eJskDw9b9MyVwQ0v4X-14">
          <mxGeometry relative="1" as="geometry" />
        </mxCell>
        <mxCell id="i_eJskDw9b9MyVwQ0v4X-12" value="has" style="rhombus;whiteSpace=wrap;html=1;" vertex="1" parent="1">
          <mxGeometry x="280" y="460" width="80" height="80" as="geometry" />
        </mxCell>
        <mxCell id="i_eJskDw9b9MyVwQ0v4X-54" style="edgeStyle=none;shape=connector;rounded=0;orthogonalLoop=1;jettySize=auto;html=1;exitX=0.5;exitY=0;exitDx=0;exitDy=0;entryX=0.5;entryY=1;entryDx=0;entryDy=0;labelBackgroundColor=default;strokeColor=default;fontFamily=Helvetica;fontSize=11;fontColor=default;endArrow=none;endFill=0;startArrow=ERone;startFill=0;" edge="1" parent="1" source="i_eJskDw9b9MyVwQ0v4X-14" target="i_eJskDw9b9MyVwQ0v4X-18">
          <mxGeometry relative="1" as="geometry" />
        </mxCell>
        <mxCell id="i_eJskDw9b9MyVwQ0v4X-14" value="city" style="whiteSpace=wrap;html=1;" vertex="1" parent="1">
          <mxGeometry x="429" y="470" width="120" height="60" as="geometry" />
        </mxCell>
        <mxCell id="i_eJskDw9b9MyVwQ0v4X-17" value="" style="edgeStyle=orthogonalEdgeStyle;rounded=0;orthogonalLoop=1;jettySize=auto;html=1;endArrow=ERmany;endFill=0;exitX=0.5;exitY=0;exitDx=0;exitDy=0;" edge="1" parent="1" source="i_eJskDw9b9MyVwQ0v4X-18" target="i_eJskDw9b9MyVwQ0v4X-19">
          <mxGeometry relative="1" as="geometry">
            <mxPoint x="583.0000000000002" y="360" as="sourcePoint" />
            <Array as="points">
              <mxPoint x="589" y="330" />
              <mxPoint x="589" y="330" />
            </Array>
          </mxGeometry>
        </mxCell>
        <mxCell id="i_eJskDw9b9MyVwQ0v4X-18" value="has" style="rhombus;whiteSpace=wrap;html=1;" vertex="1" parent="1">
          <mxGeometry x="549" y="370" width="80" height="80" as="geometry" />
        </mxCell>
        <mxCell id="i_eJskDw9b9MyVwQ0v4X-51" value="" style="edgeStyle=none;shape=connector;rounded=0;orthogonalLoop=1;jettySize=auto;html=1;labelBackgroundColor=default;strokeColor=default;fontFamily=Helvetica;fontSize=11;fontColor=default;endArrow=none;endFill=0;startArrow=ERone;startFill=0;" edge="1" parent="1" source="i_eJskDw9b9MyVwQ0v4X-19" target="i_eJskDw9b9MyVwQ0v4X-50">
          <mxGeometry relative="1" as="geometry" />
        </mxCell>
        <mxCell id="i_eJskDw9b9MyVwQ0v4X-19" value="town" style="whiteSpace=wrap;html=1;" vertex="1" parent="1">
          <mxGeometry x="543" y="240" width="120" height="60" as="geometry" />
        </mxCell>
        <mxCell id="i_eJskDw9b9MyVwQ0v4X-49" style="edgeStyle=none;shape=connector;rounded=0;orthogonalLoop=1;jettySize=auto;html=1;exitX=1;exitY=1;exitDx=0;exitDy=0;labelBackgroundColor=default;strokeColor=default;fontFamily=Helvetica;fontSize=11;fontColor=default;endArrow=none;endFill=0;entryX=1;entryY=0;entryDx=0;entryDy=0;" edge="1" parent="1" source="i_eJskDw9b9MyVwQ0v4X-22" target="i_eJskDw9b9MyVwQ0v4X-19">
          <mxGeometry relative="1" as="geometry">
            <mxPoint x="599" y="250" as="targetPoint" />
            <mxPoint x="530" y="180" as="sourcePoint" />
          </mxGeometry>
        </mxCell>
        <mxCell id="i_eJskDw9b9MyVwQ0v4X-22" value="town_id" style="ellipse;whiteSpace=wrap;html=1;align=center;fontStyle=4;" vertex="1" parent="1">
          <mxGeometry x="480" y="130" width="100" height="40" as="geometry" />
        </mxCell>
        <mxCell id="i_eJskDw9b9MyVwQ0v4X-44" style="edgeStyle=none;shape=connector;rounded=0;orthogonalLoop=1;jettySize=auto;html=1;exitX=0.5;exitY=0;exitDx=0;exitDy=0;labelBackgroundColor=default;strokeColor=default;fontFamily=Helvetica;fontSize=11;fontColor=default;endArrow=none;endFill=0;entryX=0.5;entryY=1;entryDx=0;entryDy=0;" edge="1" parent="1" source="i_eJskDw9b9MyVwQ0v4X-23" target="i_eJskDw9b9MyVwQ0v4X-14">
          <mxGeometry relative="1" as="geometry">
            <mxPoint x="679" y="460" as="targetPoint" />
          </mxGeometry>
        </mxCell>
        <mxCell id="i_eJskDw9b9MyVwQ0v4X-23" value="city_id" style="ellipse;whiteSpace=wrap;html=1;align=center;fontStyle=4;" vertex="1" parent="1">
          <mxGeometry x="380" y="610" width="100" height="40" as="geometry" />
        </mxCell>
        <mxCell id="i_eJskDw9b9MyVwQ0v4X-45" style="edgeStyle=none;shape=connector;rounded=0;orthogonalLoop=1;jettySize=auto;html=1;exitX=0.5;exitY=0;exitDx=0;exitDy=0;entryX=0.5;entryY=1;entryDx=0;entryDy=0;labelBackgroundColor=default;strokeColor=default;fontFamily=Helvetica;fontSize=11;fontColor=default;endArrow=none;endFill=0;" edge="1" parent="1" source="i_eJskDw9b9MyVwQ0v4X-24" target="i_eJskDw9b9MyVwQ0v4X-10">
          <mxGeometry relative="1" as="geometry" />
        </mxCell>
        <mxCell id="i_eJskDw9b9MyVwQ0v4X-24" value="region_id" style="ellipse;whiteSpace=wrap;html=1;align=center;fontStyle=4;" vertex="1" parent="1">
          <mxGeometry x="40" y="585" width="100" height="40" as="geometry" />
        </mxCell>
        <mxCell id="i_eJskDw9b9MyVwQ0v4X-46" style="edgeStyle=none;shape=connector;rounded=0;orthogonalLoop=1;jettySize=auto;html=1;exitX=0.5;exitY=0;exitDx=0;exitDy=0;labelBackgroundColor=default;strokeColor=default;fontFamily=Helvetica;fontSize=11;fontColor=default;endArrow=none;endFill=0;entryX=0.5;entryY=1;entryDx=0;entryDy=0;" edge="1" parent="1" source="i_eJskDw9b9MyVwQ0v4X-40" target="i_eJskDw9b9MyVwQ0v4X-10">
          <mxGeometry relative="1" as="geometry">
            <mxPoint x="459" y="650" as="targetPoint" />
          </mxGeometry>
        </mxCell>
        <mxCell id="i_eJskDw9b9MyVwQ0v4X-40" value="region_name" style="ellipse;whiteSpace=wrap;html=1;align=center;" vertex="1" parent="1">
          <mxGeometry x="169" y="590" width="100" height="40" as="geometry" />
        </mxCell>
        <mxCell id="i_eJskDw9b9MyVwQ0v4X-41" style="edgeStyle=none;shape=connector;rounded=0;orthogonalLoop=1;jettySize=auto;html=1;exitX=0.5;exitY=0;exitDx=0;exitDy=0;labelBackgroundColor=default;strokeColor=default;fontFamily=Helvetica;fontSize=11;fontColor=default;endArrow=none;endFill=0;" edge="1" parent="1" source="i_eJskDw9b9MyVwQ0v4X-23" target="i_eJskDw9b9MyVwQ0v4X-23">
          <mxGeometry relative="1" as="geometry" />
        </mxCell>
        <mxCell id="i_eJskDw9b9MyVwQ0v4X-43" style="edgeStyle=none;shape=connector;rounded=0;orthogonalLoop=1;jettySize=auto;html=1;exitX=0.5;exitY=0;exitDx=0;exitDy=0;entryX=0.5;entryY=1;entryDx=0;entryDy=0;labelBackgroundColor=default;strokeColor=default;fontFamily=Helvetica;fontSize=11;fontColor=default;endArrow=none;endFill=0;" edge="1" parent="1" source="i_eJskDw9b9MyVwQ0v4X-42" target="i_eJskDw9b9MyVwQ0v4X-14">
          <mxGeometry relative="1" as="geometry" />
        </mxCell>
        <mxCell id="i_eJskDw9b9MyVwQ0v4X-42" value="city_name" style="ellipse;whiteSpace=wrap;html=1;align=center;" vertex="1" parent="1">
          <mxGeometry x="500" y="610" width="100" height="40" as="geometry" />
        </mxCell>
        <mxCell id="i_eJskDw9b9MyVwQ0v4X-48" style="edgeStyle=none;shape=connector;rounded=0;orthogonalLoop=1;jettySize=auto;html=1;exitX=0.5;exitY=1;exitDx=0;exitDy=0;entryX=1;entryY=0;entryDx=0;entryDy=0;labelBackgroundColor=default;strokeColor=default;fontFamily=Helvetica;fontSize=11;fontColor=default;endArrow=none;endFill=0;" edge="1" parent="1" source="i_eJskDw9b9MyVwQ0v4X-47" target="i_eJskDw9b9MyVwQ0v4X-19">
          <mxGeometry relative="1" as="geometry" />
        </mxCell>
        <mxCell id="i_eJskDw9b9MyVwQ0v4X-47" value="town_name" style="ellipse;whiteSpace=wrap;html=1;align=center;" vertex="1" parent="1">
          <mxGeometry x="570" y="100" width="100" height="40" as="geometry" />
        </mxCell>
        <mxCell id="i_eJskDw9b9MyVwQ0v4X-53" value="" style="edgeStyle=none;shape=connector;rounded=0;orthogonalLoop=1;jettySize=auto;html=1;labelBackgroundColor=default;strokeColor=default;fontFamily=Helvetica;fontSize=11;fontColor=default;endArrow=ERmany;endFill=0;" edge="1" parent="1" source="i_eJskDw9b9MyVwQ0v4X-50" target="i_eJskDw9b9MyVwQ0v4X-52">
          <mxGeometry relative="1" as="geometry" />
        </mxCell>
        <mxCell id="i_eJskDw9b9MyVwQ0v4X-50" value="has" style="rhombus;whiteSpace=wrap;html=1;" vertex="1" parent="1">
          <mxGeometry x="390" y="230" width="80" height="80" as="geometry" />
        </mxCell>
        <mxCell id="i_eJskDw9b9MyVwQ0v4X-52" value="activity" style="whiteSpace=wrap;html=1;" vertex="1" parent="1">
          <mxGeometry x="200" y="240" width="120" height="60" as="geometry" />
        </mxCell>
        <mxCell id="i_eJskDw9b9MyVwQ0v4X-60" style="edgeStyle=none;shape=connector;rounded=0;orthogonalLoop=1;jettySize=auto;html=1;exitX=0.5;exitY=1;exitDx=0;exitDy=0;entryX=0;entryY=0;entryDx=0;entryDy=0;labelBackgroundColor=default;strokeColor=default;fontFamily=Helvetica;fontSize=11;fontColor=default;endArrow=none;endFill=0;" edge="1" parent="1" source="i_eJskDw9b9MyVwQ0v4X-55" target="i_eJskDw9b9MyVwQ0v4X-52">
          <mxGeometry relative="1" as="geometry" />
        </mxCell>
        <mxCell id="i_eJskDw9b9MyVwQ0v4X-55" value="activity_id" style="ellipse;whiteSpace=wrap;html=1;align=center;fontStyle=4;" vertex="1" parent="1">
          <mxGeometry x="280" y="150" width="100" height="40" as="geometry" />
        </mxCell>
        <mxCell id="i_eJskDw9b9MyVwQ0v4X-58" style="edgeStyle=none;shape=connector;rounded=0;orthogonalLoop=1;jettySize=auto;html=1;exitX=1;exitY=0.5;exitDx=0;exitDy=0;entryX=0;entryY=0;entryDx=0;entryDy=0;labelBackgroundColor=default;strokeColor=default;fontFamily=Helvetica;fontSize=11;fontColor=default;endArrow=none;endFill=0;" edge="1" parent="1" source="i_eJskDw9b9MyVwQ0v4X-56" target="i_eJskDw9b9MyVwQ0v4X-52">
          <mxGeometry relative="1" as="geometry" />
        </mxCell>
        <mxCell id="i_eJskDw9b9MyVwQ0v4X-56" value="activity_img" style="ellipse;whiteSpace=wrap;html=1;align=center;" vertex="1" parent="1">
          <mxGeometry x="70" y="160" width="100" height="40" as="geometry" />
        </mxCell>
        <mxCell id="i_eJskDw9b9MyVwQ0v4X-59" style="edgeStyle=none;shape=connector;rounded=0;orthogonalLoop=1;jettySize=auto;html=1;exitX=1;exitY=1;exitDx=0;exitDy=0;entryX=0;entryY=0;entryDx=0;entryDy=0;labelBackgroundColor=default;strokeColor=default;fontFamily=Helvetica;fontSize=11;fontColor=default;endArrow=none;endFill=0;" edge="1" parent="1" source="i_eJskDw9b9MyVwQ0v4X-57" target="i_eJskDw9b9MyVwQ0v4X-52">
          <mxGeometry relative="1" as="geometry" />
        </mxCell>
        <mxCell id="i_eJskDw9b9MyVwQ0v4X-57" value="activity_name" style="ellipse;whiteSpace=wrap;html=1;align=center;" vertex="1" parent="1">
          <mxGeometry x="170" y="140" width="100" height="40" as="geometry" />
        </mxCell>
        <mxCell id="i_eJskDw9b9MyVwQ0v4X-67" style="edgeStyle=none;shape=connector;rounded=0;orthogonalLoop=1;jettySize=auto;html=1;exitX=1;exitY=0.5;exitDx=0;exitDy=0;labelBackgroundColor=default;strokeColor=default;fontFamily=Helvetica;fontSize=11;fontColor=default;endArrow=none;endFill=0;entryX=0;entryY=0;entryDx=0;entryDy=0;" edge="1" parent="1" source="i_eJskDw9b9MyVwQ0v4X-61" target="i_eJskDw9b9MyVwQ0v4X-52">
          <mxGeometry relative="1" as="geometry">
            <mxPoint x="260" y="250" as="targetPoint" />
          </mxGeometry>
        </mxCell>
        <mxCell id="i_eJskDw9b9MyVwQ0v4X-61" value="activity_type" style="ellipse;whiteSpace=wrap;html=1;align=center;fontFamily=Helvetica;fontSize=11;fontColor=default;" vertex="1" parent="1">
          <mxGeometry x="20" y="210" width="100" height="40" as="geometry" />
        </mxCell>
        <mxCell id="i_eJskDw9b9MyVwQ0v4X-66" style="edgeStyle=none;shape=connector;rounded=0;orthogonalLoop=1;jettySize=auto;html=1;exitX=1;exitY=0.5;exitDx=0;exitDy=0;entryX=0;entryY=0;entryDx=0;entryDy=0;labelBackgroundColor=default;strokeColor=default;fontFamily=Helvetica;fontSize=11;fontColor=default;endArrow=none;endFill=0;" edge="1" parent="1" source="i_eJskDw9b9MyVwQ0v4X-63" target="i_eJskDw9b9MyVwQ0v4X-52">
          <mxGeometry relative="1" as="geometry" />
        </mxCell>
        <mxCell id="i_eJskDw9b9MyVwQ0v4X-63" value="act_is_deleted" style="ellipse;whiteSpace=wrap;html=1;align=center;fontFamily=Helvetica;fontSize=11;fontColor=default;" vertex="1" parent="1">
          <mxGeometry x="30" y="310" width="100" height="40" as="geometry" />
        </mxCell>
        <mxCell id="i_eJskDw9b9MyVwQ0v4X-69" style="edgeStyle=none;shape=connector;rounded=0;orthogonalLoop=1;jettySize=auto;html=1;exitX=1;exitY=0.5;exitDx=0;exitDy=0;labelBackgroundColor=default;strokeColor=default;fontFamily=Helvetica;fontSize=11;fontColor=default;endArrow=none;endFill=0;entryX=0;entryY=0;entryDx=0;entryDy=0;" edge="1" parent="1" source="i_eJskDw9b9MyVwQ0v4X-68" target="i_eJskDw9b9MyVwQ0v4X-52">
          <mxGeometry relative="1" as="geometry">
            <mxPoint x="260" y="250" as="targetPoint" />
          </mxGeometry>
        </mxCell>
        <mxCell id="i_eJskDw9b9MyVwQ0v4X-68" value="act_likes" style="ellipse;whiteSpace=wrap;html=1;align=center;fontFamily=Helvetica;fontSize=11;fontColor=default;" vertex="1" parent="1">
          <mxGeometry x="10" y="260" width="100" height="40" as="geometry" />
        </mxCell>
        <mxCell id="i_eJskDw9b9MyVwQ0v4X-76" style="edgeStyle=none;shape=connector;rounded=0;orthogonalLoop=1;jettySize=auto;html=1;exitX=0;exitY=1;exitDx=0;exitDy=0;entryX=1;entryY=0;entryDx=0;entryDy=0;labelBackgroundColor=default;strokeColor=default;fontFamily=Helvetica;fontSize=11;fontColor=default;endArrow=none;endFill=0;" edge="1" parent="1" source="i_eJskDw9b9MyVwQ0v4X-72" target="i_eJskDw9b9MyVwQ0v4X-19">
          <mxGeometry relative="1" as="geometry" />
        </mxCell>
        <mxCell id="i_eJskDw9b9MyVwQ0v4X-72" value="password" style="ellipse;whiteSpace=wrap;html=1;align=center;" vertex="1" parent="1">
          <mxGeometry x="663" y="130" width="100" height="40" as="geometry" />
        </mxCell>
        <mxCell id="i_eJskDw9b9MyVwQ0v4X-77" style="edgeStyle=none;shape=connector;rounded=0;orthogonalLoop=1;jettySize=auto;html=1;exitX=0;exitY=0.5;exitDx=0;exitDy=0;labelBackgroundColor=default;strokeColor=default;fontFamily=Helvetica;fontSize=11;fontColor=default;endArrow=none;endFill=0;" edge="1" parent="1" source="i_eJskDw9b9MyVwQ0v4X-73" target="i_eJskDw9b9MyVwQ0v4X-19">
          <mxGeometry relative="1" as="geometry">
            <mxPoint x="721.7993866870793" y="214.20375624907342" as="sourcePoint" />
          </mxGeometry>
        </mxCell>
        <mxCell id="i_eJskDw9b9MyVwQ0v4X-73" value="telephone" style="ellipse;whiteSpace=wrap;html=1;align=center;" vertex="1" parent="1">
          <mxGeometry x="727" y="180" width="100" height="40" as="geometry" />
        </mxCell>
        <mxCell id="i_eJskDw9b9MyVwQ0v4X-78" style="edgeStyle=none;shape=connector;rounded=0;orthogonalLoop=1;jettySize=auto;html=1;exitX=0;exitY=0.5;exitDx=0;exitDy=0;entryX=1;entryY=0;entryDx=0;entryDy=0;labelBackgroundColor=default;strokeColor=default;fontFamily=Helvetica;fontSize=11;fontColor=default;endArrow=none;endFill=0;" edge="1" parent="1" source="i_eJskDw9b9MyVwQ0v4X-74" target="i_eJskDw9b9MyVwQ0v4X-19">
          <mxGeometry relative="1" as="geometry">
            <mxPoint x="707" y="260" as="sourcePoint" />
          </mxGeometry>
        </mxCell>
        <mxCell id="i_eJskDw9b9MyVwQ0v4X-74" value="img" style="ellipse;whiteSpace=wrap;html=1;align=center;" vertex="1" parent="1">
          <mxGeometry x="727" y="240" width="100" height="40" as="geometry" />
        </mxCell>
        <mxCell id="i_eJskDw9b9MyVwQ0v4X-82" style="edgeStyle=none;shape=connector;rounded=0;orthogonalLoop=1;jettySize=auto;html=1;exitX=0;exitY=0.5;exitDx=0;exitDy=0;entryX=1;entryY=0;entryDx=0;entryDy=0;labelBackgroundColor=default;strokeColor=default;fontFamily=Helvetica;fontSize=11;fontColor=default;endArrow=none;endFill=0;" edge="1" parent="1" source="i_eJskDw9b9MyVwQ0v4X-80" target="i_eJskDw9b9MyVwQ0v4X-19">
          <mxGeometry relative="1" as="geometry" />
        </mxCell>
        <mxCell id="i_eJskDw9b9MyVwQ0v4X-80" value="mail" style="ellipse;whiteSpace=wrap;html=1;align=center;" vertex="1" parent="1">
          <mxGeometry x="710" y="290" width="100" height="40" as="geometry" />
        </mxCell>
        <mxCell id="i_eJskDw9b9MyVwQ0v4X-83" style="edgeStyle=none;shape=connector;rounded=0;orthogonalLoop=1;jettySize=auto;html=1;exitX=0;exitY=0;exitDx=0;exitDy=0;labelBackgroundColor=default;strokeColor=default;fontFamily=Helvetica;fontSize=11;fontColor=default;endArrow=none;endFill=0;" edge="1" parent="1" source="i_eJskDw9b9MyVwQ0v4X-81">
          <mxGeometry relative="1" as="geometry">
            <mxPoint x="660" y="240" as="targetPoint" />
          </mxGeometry>
        </mxCell>
        <mxCell id="i_eJskDw9b9MyVwQ0v4X-81" value="description" style="ellipse;whiteSpace=wrap;html=1;align=center;" vertex="1" parent="1">
          <mxGeometry x="680" y="340" width="100" height="40" as="geometry" />
        </mxCell>
      </root>
    </mxGraphModel>
  </diagram>
</mxfile>
